<svg xmlns="http://www.w3.org/2000/svg" xmlns:xlink="http://www.w3.org/1999/xlink" width="200" zoomAndPan="magnify" viewBox="0 0 150 149.999998" height="200" preserveAspectRatio="xMidYMid meet" version="1.2"><defs><clipPath id="00ad2292b6"><path d="M 28 15 L 123 15 L 123 134.25 L 28 134.25 Z M 28 15 "/></clipPath><clipPath id="cf4b1c99cc"><path d="M 91.710938 36.601562 L 96.210938 36.601562 L 96.210938 41.101562 L 91.710938 41.101562 Z M 91.710938 36.601562 "/></clipPath></defs><g id="c36f9c8087"><rect x="0" width="150" y="0" height="149.999998" style="fill:#ffffff;fill-opacity:1;stroke:none;"/><rect x="0" width="150" y="0" height="149.999998" style="fill:#ffffff;fill-opacity:1;stroke:none;"/><g clip-rule="nonzero" clip-path="url(#00ad2292b6)"><path style=" stroke:none;fill-rule:evenodd;fill:#061827;fill-opacity:1;" d="M 119.796875 134.085938 L 31.042969 134.085938 C 29.714844 134.085938 28.671875 132.96875 28.671875 131.644531 L 28.671875 17.441406 C 28.671875 16.183594 29.714844 15.070312 31.042969 15.070312 L 93.234375 15.070312 C 93.582031 15.070312 93.929688 15.210938 94.210938 15.488281 C 94.417969 15.765625 94.628906 16.117188 94.628906 16.464844 L 94.628906 40.167969 L 120.773438 40.167969 C 121.542969 40.167969 122.167969 40.796875 122.167969 41.5625 L 122.167969 131.644531 C 122.167969 132.96875 121.054688 134.085938 119.796875 134.085938 Z M 31.460938 131.296875 L 119.378906 131.296875 L 119.378906 42.957031 L 93.234375 42.957031 C 92.398438 42.957031 91.839844 42.332031 91.839844 41.5625 L 91.839844 17.859375 L 31.460938 17.859375 Z M 31.460938 131.296875 "/></g><path style=" stroke:none;fill-rule:evenodd;fill:#061827;fill-opacity:1;" d="M 47.425781 71.058594 C 45.265625 71.058594 43.660156 70.5 42.617188 69.382812 C 40.59375 67.292969 41.082031 63.945312 41.5 60.738281 C 42.058594 56.625 42.195312 54.113281 39.964844 53.277344 C 39.40625 53.136719 38.988281 52.582031 38.988281 52.023438 C 38.988281 51.394531 39.40625 50.90625 39.964844 50.699219 C 42.195312 49.859375 42.058594 47.351562 41.5 43.308594 C 41.082031 40.03125 40.59375 36.683594 42.617188 34.59375 C 43.871094 33.335938 45.753906 32.777344 48.542969 32.988281 C 49.308594 33.058594 49.867188 33.6875 49.796875 34.453125 C 49.726562 35.21875 49.097656 35.847656 48.332031 35.777344 C 46.449219 35.636719 45.265625 35.917969 44.636719 36.542969 C 43.589844 37.660156 43.941406 40.308594 44.289062 42.890625 C 44.707031 46.027344 45.195312 49.792969 43.035156 52.023438 C 45.195312 54.183594 44.707031 57.949219 44.289062 61.085938 C 43.941406 63.667969 43.589844 66.316406 44.636719 67.429688 C 45.265625 68.128906 46.449219 68.40625 48.332031 68.269531 C 49.097656 68.199219 49.726562 68.757812 49.796875 69.523438 C 49.867188 70.289062 49.308594 70.988281 48.542969 70.988281 C 48.125 71.058594 47.773438 71.058594 47.425781 71.058594 Z M 47.425781 71.058594 "/><path style=" stroke:none;fill-rule:evenodd;fill:#061827;fill-opacity:1;" d="M 75.804688 71.058594 C 75.453125 71.058594 75.105469 71.058594 74.757812 70.988281 C 73.992188 70.988281 73.363281 70.289062 73.433594 69.523438 C 73.503906 68.757812 74.199219 68.199219 74.964844 68.269531 C 76.78125 68.40625 78.035156 68.128906 78.660156 67.429688 C 79.707031 66.316406 79.359375 63.667969 79.011719 61.085938 C 78.59375 57.949219 78.105469 54.183594 80.265625 52.023438 C 78.105469 49.792969 78.59375 46.027344 79.011719 42.890625 C 79.359375 40.308594 79.707031 37.660156 78.660156 36.542969 C 78.035156 35.917969 76.78125 35.636719 74.964844 35.777344 C 74.199219 35.847656 73.503906 35.21875 73.433594 34.453125 C 73.363281 33.6875 73.992188 33.058594 74.757812 32.988281 C 77.476562 32.777344 79.429688 33.335938 80.683594 34.59375 C 82.636719 36.683594 82.21875 40.03125 81.800781 43.308594 C 81.242188 47.351562 81.03125 49.859375 83.332031 50.699219 C 83.890625 50.90625 84.238281 51.394531 84.238281 52.023438 C 84.238281 52.582031 83.890625 53.136719 83.332031 53.277344 C 81.03125 54.113281 81.242188 56.625 81.800781 60.738281 C 82.21875 63.945312 82.636719 67.292969 80.683594 69.382812 C 79.566406 70.5 78.035156 71.058594 75.804688 71.058594 Z M 75.804688 71.058594 "/><path style=" stroke:none;fill-rule:evenodd;fill:#061827;fill-opacity:1;" d="M 53.632812 54.042969 L 51.121094 54.042969 C 50.355469 54.042969 49.726562 53.417969 49.726562 52.648438 C 49.726562 51.882812 50.355469 51.253906 51.121094 51.253906 L 53.632812 51.253906 C 54.398438 51.253906 55.027344 51.882812 55.027344 52.648438 C 55.027344 53.417969 54.398438 54.042969 53.632812 54.042969 Z M 53.632812 54.042969 "/><path style=" stroke:none;fill-rule:evenodd;fill:#061827;fill-opacity:1;" d="M 62.90625 54.042969 L 60.394531 54.042969 C 59.628906 54.042969 59 53.417969 59 52.648438 C 59 51.882812 59.628906 51.253906 60.394531 51.253906 L 62.90625 51.253906 C 63.671875 51.253906 64.300781 51.882812 64.300781 52.648438 C 64.300781 53.417969 63.671875 54.042969 62.90625 54.042969 Z M 62.90625 54.042969 "/><path style=" stroke:none;fill-rule:evenodd;fill:#061827;fill-opacity:1;" d="M 72.109375 54.042969 L 69.597656 54.042969 C 68.832031 54.042969 68.203125 53.417969 68.203125 52.648438 C 68.203125 51.882812 68.832031 51.253906 69.597656 51.253906 L 72.109375 51.253906 C 72.875 51.253906 73.503906 51.882812 73.503906 52.648438 C 73.503906 53.417969 72.875 54.042969 72.109375 54.042969 Z M 72.109375 54.042969 "/><path style=" stroke:none;fill-rule:evenodd;fill:#061827;fill-opacity:1;" d="M 120.773438 42.957031 L 93.234375 42.957031 C 92.398438 42.957031 91.839844 42.332031 91.839844 41.5625 L 91.839844 16.464844 C 91.839844 15.90625 92.117188 15.417969 92.605469 15.210938 C 93.164062 15 93.722656 15.070312 94.140625 15.417969 L 121.679688 40.519531 C 122.097656 40.9375 122.238281 41.496094 122.027344 42.050781 C 121.820312 42.609375 121.332031 42.957031 120.773438 42.957031 Z M 94.628906 40.167969 L 117.148438 40.167969 L 94.628906 19.601562 Z M 94.628906 40.167969 "/><path style=" stroke:none;fill-rule:evenodd;fill:#ffffff;fill-opacity:1;" d="M 110.246094 121.882812 L 40.59375 121.882812 C 38.988281 121.882812 37.734375 120.628906 37.734375 119.09375 L 37.734375 83.1875 C 37.734375 81.65625 39.058594 80.398438 40.59375 80.398438 L 110.246094 80.398438 C 111.78125 80.398438 113.035156 81.65625 113.035156 83.1875 L 113.035156 119.09375 C 113.035156 120.628906 111.78125 121.882812 110.246094 121.882812 Z M 110.246094 121.882812 "/><path style=" stroke:none;fill-rule:evenodd;fill:#061827;fill-opacity:1;" d="M 49.519531 111.285156 L 46.101562 111.285156 C 45.335938 111.285156 44.707031 110.660156 44.707031 109.890625 C 44.707031 109.125 45.335938 108.496094 46.101562 108.496094 L 49.519531 108.496094 C 50.632812 108.496094 51.46875 107.589844 51.46875 106.546875 L 51.46875 92.390625 C 51.46875 91.625 52.097656 90.996094 52.863281 90.996094 C 53.632812 90.996094 54.257812 91.625 54.257812 92.390625 L 54.257812 106.546875 C 54.257812 109.125 52.167969 111.285156 49.519531 111.285156 Z M 49.519531 111.285156 "/><path style=" stroke:none;fill-rule:evenodd;fill:#061827;fill-opacity:1;" d="M 64.367188 111.285156 C 61.230469 111.285156 58.652344 108.707031 58.652344 105.5 C 58.652344 104.734375 59.277344 104.105469 60.046875 104.105469 C 60.8125 104.105469 61.441406 104.734375 61.441406 105.5 C 61.441406 107.171875 62.765625 108.496094 64.367188 108.496094 C 66.042969 108.496094 67.367188 107.171875 67.367188 105.5 C 67.367188 103.894531 66.042969 102.570312 64.367188 102.570312 C 61.230469 102.570312 58.652344 99.992188 58.652344 96.785156 C 58.652344 93.648438 61.230469 91.066406 64.367188 91.066406 C 67.574219 91.066406 70.15625 93.648438 70.15625 96.785156 C 70.15625 97.550781 69.527344 98.179688 68.761719 98.179688 C 67.996094 98.179688 67.367188 97.550781 67.367188 96.785156 C 67.367188 95.179688 66.042969 93.855469 64.367188 93.855469 C 62.765625 93.855469 61.441406 95.179688 61.441406 96.785156 C 61.441406 98.457031 62.765625 99.78125 64.367188 99.78125 C 67.574219 99.78125 70.15625 102.363281 70.15625 105.5 C 70.15625 108.707031 67.574219 111.285156 64.367188 111.285156 Z M 64.367188 111.285156 "/><path style=" stroke:none;fill-rule:evenodd;fill:#061827;fill-opacity:1;" d="M 80.195312 111.285156 C 77.058594 111.285156 74.476562 108.707031 74.476562 105.570312 L 74.476562 96.785156 C 74.476562 93.648438 77.058594 91.066406 80.195312 91.066406 C 83.402344 91.066406 85.914062 93.648438 85.914062 96.785156 L 85.914062 105.570312 C 85.914062 108.707031 83.402344 111.285156 80.195312 111.285156 Z M 80.195312 93.855469 C 78.59375 93.855469 77.265625 95.179688 77.265625 96.785156 L 77.265625 105.570312 C 77.265625 107.171875 78.59375 108.496094 80.195312 108.496094 C 81.867188 108.496094 83.125 107.171875 83.125 105.570312 L 83.125 96.785156 C 83.125 95.179688 81.867188 93.855469 80.195312 93.855469 Z M 80.195312 93.855469 "/><path style=" stroke:none;fill-rule:evenodd;fill:#061827;fill-opacity:1;" d="M 104.738281 111.285156 C 104.320312 111.285156 103.902344 111.078125 103.621094 110.730469 L 93.09375 96.644531 L 93.09375 109.890625 C 93.09375 110.660156 92.46875 111.285156 91.699219 111.285156 C 90.933594 111.285156 90.304688 110.660156 90.304688 109.890625 L 90.304688 92.460938 C 90.304688 91.835938 90.652344 91.347656 91.28125 91.136719 C 91.839844 90.929688 92.46875 91.136719 92.816406 91.625 L 103.34375 105.707031 L 103.34375 92.460938 C 103.34375 91.695312 103.972656 91.066406 104.738281 91.066406 C 105.503906 91.066406 106.132812 91.695312 106.132812 92.460938 L 106.132812 109.890625 C 106.132812 110.519531 105.714844 111.007812 105.15625 111.21875 C 105.015625 111.285156 104.878906 111.285156 104.738281 111.285156 Z M 104.738281 111.285156 "/><g clip-rule="nonzero" clip-path="url(#cf4b1c99cc)"><path style=" stroke:none;fill-rule:nonzero;fill:#000000;fill-opacity:1;" d="M 94.015625 37.769531 C 94.039062 38.3125 94.5 38.773438 95.042969 38.796875 L 96.210938 38.851562 L 95.042969 38.90625 C 94.5 38.933594 94.039062 39.390625 94.015625 39.933594 L 93.960938 41.101562 L 93.90625 39.933594 C 93.882812 39.390625 93.421875 38.933594 92.878906 38.90625 L 91.710938 38.851562 L 92.878906 38.796875 C 93.421875 38.773438 93.882812 38.3125 93.90625 37.769531 L 93.960938 36.601562 L 94.015625 37.769531 "/></g></g></svg>