<svg xmlns="http://www.w3.org/2000/svg" xmlns:xlink="http://www.w3.org/1999/xlink" width="200" zoomAndPan="magnify" viewBox="0 0 150 149.999998" height="200" preserveAspectRatio="xMidYMid meet" version="1.2"><defs><clipPath id="26ef0ee41b"><path d="M 12.945312 9.867188 L 136.695312 9.867188 L 136.695312 140.367188 L 12.945312 140.367188 Z M 12.945312 9.867188 "/></clipPath><clipPath id="677ab3ed7c"><path d="M 108.589844 75 L 114.589844 75 L 114.589844 81 L 108.589844 81 Z M 108.589844 75 "/></clipPath></defs><g id="7eb1dd011e"><rect x="0" width="150" y="0" height="149.999998" style="fill:#ffffff;fill-opacity:1;stroke:none;"/><rect x="0" width="150" y="0" height="149.999998" style="fill:#ffffff;fill-opacity:1;stroke:none;"/><g clip-rule="nonzero" clip-path="url(#26ef0ee41b)"><path style=" stroke:none;fill-rule:nonzero;fill:#061827;fill-opacity:1;" d="M 132.800781 94.695312 L 127.320312 93.449219 C 126.800781 91.808594 126.140625 90.210938 125.339844 88.679688 L 128.335938 83.925781 C 129.785156 81.640625 129.691406 79.230469 128.09375 77.632812 L 123.886719 73.417969 C 122.292969 71.832031 119.882812 71.742188 117.605469 73.179688 L 112.835938 76.183594 C 111.976562 75.734375 111.097656 75.332031 110.203125 74.972656 C 110.296875 68.25 110.152344 61.398438 110.015625 54.765625 C 109.953125 51.710938 109.886719 48.554688 109.84375 45.457031 C 109.835938 44.789062 109.453125 44.1875 108.851562 43.898438 C 98.957031 39.085938 88.519531 36.449219 77.785156 36.039062 C 77.5 35.382812 77.199219 34.734375 76.867188 34.097656 L 79.867188 29.332031 C 81.304688 27.046875 81.210938 24.636719 79.621094 23.046875 L 75.410156 18.835938 C 73.824219 17.25 71.417969 17.15625 69.125 18.59375 L 64.363281 21.597656 C 62.828125 20.796875 61.234375 20.132812 59.601562 19.617188 L 58.351562 14.140625 C 57.761719 11.503906 55.992188 9.867188 53.734375 9.867188 L 47.785156 9.867188 C 45.527344 9.867188 43.757812 11.503906 43.167969 14.132812 L 41.917969 19.617188 C 40.285156 20.132812 38.691406 20.796875 37.15625 21.597656 L 32.390625 18.589844 C 30.101562 17.15625 27.695312 17.25 26.109375 18.835938 L 21.894531 23.050781 C 20.308594 24.644531 20.21875 27.054688 21.652344 29.332031 L 24.652344 34.101562 C 23.855469 35.628906 23.195312 37.222656 22.679688 38.863281 L 17.183594 40.109375 C 14.554688 40.710938 12.917969 42.480469 12.917969 44.722656 L 12.917969 50.679688 C 12.917969 52.921875 14.554688 54.691406 17.1875 55.296875 L 22.675781 56.542969 C 23.199219 58.191406 23.859375 59.789062 24.652344 61.308594 L 21.652344 66.074219 C 20.222656 68.359375 20.316406 70.761719 21.898438 72.355469 L 26.109375 76.566406 C 27.695312 78.152344 30.101562 78.246094 32.394531 76.8125 L 37.15625 73.808594 C 37.890625 74.195312 38.648438 74.546875 39.414062 74.871094 C 39.417969 75.039062 39.417969 75.210938 39.421875 75.382812 C 39.507812 81.394531 39.804688 88.253906 42.285156 93.601562 C 44.605469 98.628906 49.023438 102.492188 52.617188 105.300781 C 58.640625 109.996094 65.570312 114.238281 71.847656 117.921875 L 70.125 120.660156 C 68.695312 122.941406 68.789062 125.347656 70.371094 126.941406 L 74.582031 131.152344 C 76.167969 132.738281 78.574219 132.832031 80.867188 131.398438 L 85.628906 128.394531 C 87.148438 129.191406 88.746094 129.855469 90.390625 130.371094 L 91.640625 135.847656 C 92.230469 138.492188 94 140.132812 96.257812 140.132812 L 102.207031 140.132812 C 104.457031 140.132812 106.226562 138.492188 106.828125 135.855469 L 108.074219 130.371094 C 109.714844 129.855469 111.3125 129.195312 112.835938 128.398438 L 117.605469 131.398438 C 119.886719 132.832031 122.292969 132.742188 123.890625 131.152344 L 128.09375 126.941406 C 129.6875 125.347656 129.78125 122.941406 128.339844 120.65625 L 125.339844 115.886719 C 126.132812 114.367188 126.796875 112.773438 127.316406 111.128906 L 132.808594 109.878906 C 135.4375 109.277344 137.074219 107.507812 137.074219 105.265625 L 137.074219 99.308594 C 137.074219 97.066406 135.4375 95.300781 132.804688 94.695312 Z M 108.046875 91.855469 C 111.011719 94.363281 112.898438 98.109375 112.898438 102.289062 C 112.898438 109.820312 106.769531 115.953125 99.234375 115.953125 C 95.066406 115.953125 91.328125 114.070312 88.820312 111.117188 C 91.632812 109.269531 94.402344 107.328125 97.007812 105.296875 C 100.597656 102.492188 105.015625 98.628906 107.335938 93.601562 C 107.597656 93.039062 107.832031 92.453125 108.046875 91.855469 Z M 39.386719 70.996094 C 38.90625 70.757812 38.429688 70.507812 37.964844 70.242188 C 37.695312 70.085938 37.394531 70.007812 37.089844 70.007812 C 36.765625 70.007812 36.4375 70.097656 36.152344 70.277344 L 30.523438 73.832031 C 30.207031 74.027344 29.144531 74.625 28.597656 74.078125 L 24.390625 69.871094 C 23.855469 69.332031 24.382812 68.34375 24.632812 67.945312 L 28.179688 62.3125 C 28.523438 61.761719 28.539062 61.066406 28.21875 60.503906 C 27.167969 58.65625 26.339844 56.664062 25.765625 54.582031 C 25.589844 53.960938 25.089844 53.480469 24.457031 53.339844 L 17.972656 51.863281 C 17.613281 51.78125 16.4375 51.453125 16.4375 50.679688 L 16.4375 44.722656 C 16.4375 43.949219 17.613281 43.621094 17.96875 43.539062 L 24.464844 42.066406 C 25.097656 41.921875 25.601562 41.441406 25.773438 40.816406 C 26.339844 38.753906 27.160156 36.765625 28.21875 34.90625 C 28.539062 34.34375 28.523438 33.648438 28.179688 33.101562 L 24.632812 27.457031 C 24.433594 27.148438 23.839844 26.085938 24.386719 25.535156 L 28.597656 21.324219 C 29.144531 20.777344 30.207031 21.375 30.515625 21.570312 L 36.152344 25.125 C 36.703125 25.472656 37.398438 25.488281 37.960938 25.164062 C 39.835938 24.097656 41.824219 23.273438 43.871094 22.710938 C 44.496094 22.539062 44.972656 22.039062 45.117188 21.40625 L 46.601562 14.910156 C 46.683594 14.550781 47.003906 13.382812 47.785156 13.382812 L 53.734375 13.382812 C 54.515625 13.382812 54.835938 14.550781 54.917969 14.914062 L 56.398438 21.40625 C 56.542969 22.039062 57.023438 22.539062 57.648438 22.710938 C 59.695312 23.273438 61.679688 24.097656 63.554688 25.164062 C 64.121094 25.488281 64.816406 25.472656 65.363281 25.125 L 70.996094 21.574219 C 71.308594 21.375 72.375 20.777344 72.921875 21.324219 L 77.132812 25.535156 C 77.679688 26.085938 77.082031 27.144531 76.886719 27.457031 L 73.339844 33.09375 C 72.992188 33.640625 72.976562 34.335938 73.296875 34.898438 C 73.5 35.257812 73.691406 35.621094 73.878906 35.988281 C 70.550781 36.027344 67.25 36.277344 63.984375 36.742188 C 60.832031 32.941406 56.074219 30.519531 50.761719 30.519531 C 41.285156 30.519531 33.578125 38.226562 33.578125 47.703125 C 33.578125 52.867188 35.871094 57.5 39.488281 60.652344 C 39.425781 64.085938 39.382812 67.546875 39.386719 70.996094 Z M 40.761719 43.898438 C 40.160156 44.1875 39.777344 44.792969 39.769531 45.457031 C 39.730469 48.621094 39.664062 51.839844 39.597656 54.957031 C 39.59375 55.15625 39.589844 55.351562 39.585938 55.550781 C 38.019531 53.328125 37.097656 50.621094 37.097656 47.703125 C 37.097656 40.167969 43.226562 34.039062 50.761719 34.039062 C 54.222656 34.039062 57.382812 35.332031 59.789062 37.457031 C 53.277344 38.753906 46.914062 40.90625 40.761719 43.894531 Z M 54.78125 102.523438 C 51.300781 99.804688 47.472656 96.441406 45.476562 92.121094 C 43.289062 87.402344 43.019531 80.980469 42.941406 75.332031 C 42.839844 68.605469 42.980469 61.703125 43.117188 55.03125 C 43.175781 52.265625 43.234375 49.417969 43.273438 46.597656 C 63.375 37.175781 86.238281 37.175781 106.339844 46.597656 C 106.382812 49.351562 106.441406 52.136719 106.496094 54.839844 C 106.636719 61.574219 106.785156 68.539062 106.679688 75.332031 C 106.601562 80.980469 106.332031 87.402344 104.144531 92.125 C 102.148438 96.441406 98.320312 99.804688 94.839844 102.523438 C 88.589844 107.398438 81.285156 111.796875 74.808594 115.574219 C 68.324219 111.792969 61.015625 107.386719 54.78125 102.523438 Z M 133.550781 105.265625 C 133.550781 106.039062 132.378906 106.367188 132.023438 106.449219 L 125.53125 107.921875 C 124.902344 108.066406 124.402344 108.542969 124.226562 109.167969 C 123.652344 111.238281 122.824219 113.230469 121.769531 115.082031 C 121.449219 115.644531 121.464844 116.339844 121.8125 116.886719 L 125.359375 122.535156 C 125.613281 122.933594 126.140625 123.917969 125.601562 124.453125 L 121.40625 128.660156 C 120.851562 129.210938 119.792969 128.617188 119.480469 128.417969 L 113.835938 124.871094 C 113.289062 124.523438 112.59375 124.507812 112.03125 124.832031 C 110.171875 125.886719 108.183594 126.710938 106.121094 127.277344 C 105.496094 127.449219 105.015625 127.953125 104.871094 128.585938 L 103.398438 135.074219 C 103.316406 135.433594 102.984375 136.613281 102.207031 136.613281 L 96.257812 136.613281 C 95.480469 136.613281 95.15625 135.441406 95.074219 135.074219 L 93.59375 128.582031 C 93.449219 127.949219 92.96875 127.449219 92.34375 127.277344 C 90.273438 126.710938 88.289062 125.882812 86.4375 124.824219 C 86.167969 124.671875 85.867188 124.59375 85.5625 124.59375 C 85.238281 124.59375 84.910156 124.683594 84.625 124.863281 L 78.996094 128.417969 C 78.679688 128.613281 77.617188 129.210938 77.070312 128.664062 L 72.863281 124.457031 C 72.328125 123.917969 72.855469 122.929688 73.105469 122.53125 L 75.113281 119.339844 C 75.3125 119.304688 75.507812 119.238281 75.691406 119.132812 C 78.921875 117.253906 82.378906 115.21875 85.84375 113.035156 C 88.992188 116.957031 93.824219 119.472656 99.234375 119.472656 C 108.710938 119.472656 116.417969 111.761719 116.417969 102.289062 C 116.417969 96.472656 113.515625 91.328125 109.082031 88.21875 C 109.742188 85.164062 110.003906 81.914062 110.117188 78.769531 C 110.765625 79.070312 111.402344 79.394531 112.03125 79.75 C 112.59375 80.074219 113.289062 80.058594 113.835938 79.710938 L 119.480469 76.15625 C 119.789062 75.960938 120.851562 75.363281 121.398438 75.910156 L 125.605469 80.121094 C 126.15625 80.675781 125.558594 81.726562 125.359375 82.042969 L 121.8125 87.679688 C 121.464844 88.226562 121.449219 88.921875 121.769531 89.484375 C 122.835938 91.355469 123.660156 93.347656 124.226562 95.402344 C 124.398438 96.027344 124.898438 96.507812 125.53125 96.652344 L 132.019531 98.125 C 132.378906 98.207031 133.550781 98.535156 133.550781 99.308594 Z M 98.78125 71.675781 C 98.78125 58.460938 88.023438 47.707031 74.808594 47.707031 C 61.589844 47.707031 50.839844 58.460938 50.839844 71.675781 C 50.839844 84.890625 61.59375 95.648438 74.808594 95.648438 C 88.023438 95.648438 98.78125 84.894531 98.78125 71.675781 Z M 74.808594 92.128906 C 63.53125 92.128906 54.359375 82.953125 54.359375 71.675781 C 54.359375 60.394531 63.53125 51.226562 74.808594 51.226562 C 86.082031 51.226562 95.261719 60.402344 95.261719 71.675781 C 95.261719 82.949219 86.085938 92.128906 74.808594 92.128906 Z M 89.375 63.3125 C 88.617188 61.441406 86.835938 60.050781 84.832031 59.773438 C 82.964844 59.511719 81.199219 60.253906 79.988281 61.808594 L 72.308594 71.660156 L 69.785156 68.367188 C 67.609375 65.53125 64.285156 65.671875 62.128906 67.28125 C 59.984375 68.878906 58.886719 71.988281 60.949219 74.839844 C 60.960938 74.859375 60.972656 74.875 60.984375 74.890625 L 64.839844 79.851562 C 66.695312 82.238281 69.179688 83.542969 72.035156 83.628906 C 72.132812 83.632812 72.234375 83.632812 72.332031 83.632812 C 75.171875 83.632812 77.710938 82.429688 79.511719 80.226562 C 79.519531 80.214844 79.527344 80.203125 79.535156 80.195312 L 88.519531 68.675781 C 89.785156 67.050781 90.097656 65.097656 89.375 63.316406 Z M 85.742188 66.511719 L 76.773438 78.011719 C 75.601562 79.441406 74 80.164062 72.136719 80.109375 C 70.34375 80.058594 68.824219 79.242188 67.617188 77.691406 L 63.785156 72.757812 C 62.761719 71.308594 63.976562 70.292969 64.230469 70.101562 C 64.492188 69.910156 65.847656 69.019531 66.992188 70.507812 L 70.621094 75.242188 C 71.027344 75.769531 71.636719 76.070312 72.300781 76.070312 C 72.960938 76.070312 73.570312 75.769531 73.964844 75.257812 L 82.761719 63.972656 C 83.207031 63.40625 83.722656 63.167969 84.347656 63.257812 C 85.101562 63.363281 85.828125 63.929688 86.113281 64.632812 C 86.363281 65.246094 86.238281 65.878906 85.742188 66.511719 Z M 85.742188 66.511719 "/></g><g clip-rule="nonzero" clip-path="url(#677ab3ed7c)"><path style=" stroke:none;fill-rule:nonzero;fill:#061827;fill-opacity:1;" d="M 111.546875 76.5 C 111.582031 77.195312 112.171875 77.789062 112.867188 77.820312 L 114.367188 77.886719 L 112.867188 77.957031 C 112.171875 77.988281 111.582031 78.582031 111.546875 79.277344 L 111.480469 80.777344 L 111.410156 79.277344 C 111.378906 78.582031 110.785156 77.988281 110.089844 77.957031 L 108.589844 77.886719 L 110.089844 77.820312 C 110.785156 77.789062 111.378906 77.195312 111.410156 76.5 L 111.480469 75 L 111.546875 76.5 "/></g></g></svg>