<svg xmlns="http://www.w3.org/2000/svg" xmlns:xlink="http://www.w3.org/1999/xlink" width="200" zoomAndPan="magnify" viewBox="0 0 150 149.999998" height="200" preserveAspectRatio="xMidYMid meet" version="1.2"><defs><clipPath id="9bb07d9b29"><path d="M 8.59375 6.363281 L 141 6.363281 L 141 139.113281 L 8.59375 139.113281 Z M 8.59375 6.363281 "/></clipPath><clipPath id="9f7b11e8ad"><path d="M 62.675781 62.675781 L 87.425781 62.675781 L 87.425781 87.425781 L 62.675781 87.425781 Z M 62.675781 62.675781 "/></clipPath></defs><g id="f368e71a83"><rect x="0" width="150" y="0" height="149.999998" style="fill:#ffffff;fill-opacity:1;stroke:none;"/><rect x="0" width="150" y="0" height="149.999998" style="fill:#ffffff;fill-opacity:1;stroke:none;"/><g clip-rule="nonzero" clip-path="url(#9bb07d9b29)"><path style=" stroke:none;fill-rule:evenodd;fill:#061827;fill-opacity:1;" d="M 125.804688 44.015625 C 122.671875 43.855469 119.796875 42.734375 117.472656 40.890625 L 93.515625 62.691406 C 99.679688 71.027344 99.277344 82.402344 92.550781 90.332031 L 115.628906 114.285156 C 122.917969 109.714844 132.609375 115.003906 132.609375 123.742188 C 132.609375 129.910156 127.648438 134.871094 121.46875 134.871094 C 115.550781 134.871094 110.746094 130.3125 110.339844 124.460938 L 85.824219 120.855469 C 82.0625 129.191406 69.5625 126.539062 69.5625 117.410156 C 69.5625 112.679688 73.402344 108.917969 78.050781 108.917969 C 82.375 108.917969 85.902344 112.117188 86.460938 116.285156 L 111.058594 119.890625 C 111.386719 119.015625 111.777344 118.203125 112.261719 117.488281 L 89.179688 93.53125 C 80.9375 100.023438 69.234375 99.789062 61.148438 93.046875 L 31.5 122.058594 C 36.148438 129.347656 30.9375 139.117188 22.121094 139.117188 C 15.953125 139.117188 10.914062 134.152344 10.914062 127.988281 C 10.914062 122.855469 14.425781 118.53125 19.078125 117.25 L 18.125 101.226562 C 12.753906 100.429688 8.667969 95.777344 8.667969 90.175781 C 8.667969 83.042969 15.238281 77.832031 22.199219 79.347656 L 29.5 63.332031 C 17.71875 55.390625 23.320312 37.050781 37.429688 37.050781 C 45.355469 37.050781 51.847656 43.453125 51.847656 51.394531 C 51.847656 60.835938 42.796875 67.65625 33.746094 65.253906 L 26.457031 81.277344 C 33.902344 86.804688 31.65625 98.496094 22.761719 100.988281 L 23.726562 116.925781 C 25.410156 117.171875 26.925781 117.8125 28.296875 118.6875 L 57.9375 89.769531 C 46.402344 75.179688 56.734375 53.46875 75.492188 53.46875 C 81.171875 53.46875 86.460938 55.640625 90.382812 59.242188 L 114.351562 37.445312 C 112.820312 34.960938 111.945312 32.074219 112.101562 28.953125 L 79.566406 21.980469 C 74.679688 32.964844 58.261719 29.4375 58.261719 17.5 C 58.261719 11.332031 63.226562 6.355469 69.390625 6.355469 C 75.570312 6.355469 80.53125 11.332031 80.53125 17.5 L 113.058594 24.394531 C 115.148438 19.105469 120.359375 15.328125 126.445312 15.328125 C 134.375 15.328125 140.785156 21.742188 140.785156 29.671875 C 140.785156 36.164062 136.371094 41.6875 130.363281 43.453125 L 133.8125 72.304688 C 137.820312 72.945312 140.945312 76.472656 140.945312 80.640625 C 140.945312 85.367188 137.101562 89.207031 132.453125 89.207031 C 123.152344 89.207031 120.671875 76.382812 129.160156 72.867188 Z M 75.492188 58.121094 C 65.707031 58.121094 57.777344 66.128906 57.777344 75.910156 C 57.777344 85.679688 65.707031 93.609375 75.492188 93.609375 C 85.261719 93.609375 93.191406 85.679688 93.191406 75.910156 C 93.191406 66.128906 85.261719 58.121094 75.492188 58.121094 Z M 69.390625 11.007812 C 65.785156 11.007812 62.898438 13.894531 62.898438 17.5 C 62.898438 21.023438 65.785156 23.988281 69.390625 23.988281 C 72.996094 23.988281 75.882812 21.023438 75.882812 17.5 C 75.882812 13.894531 72.996094 11.007812 69.390625 11.007812 Z M 132.046875 76.863281 C 127.085938 77.503906 127.726562 84.558594 132.453125 84.558594 C 137.742188 84.558594 137.339844 76.300781 132.046875 76.863281 Z M 20.121094 96.746094 C 28.613281 96.089844 28.050781 83.683594 19.796875 83.683594 C 16.191406 83.683594 13.316406 86.648438 13.316406 90.175781 C 13.316406 93.9375 16.515625 96.902344 20.121094 96.746094 Z M 115.066406 122.777344 C 114.507812 126.863281 117.550781 130.234375 121.46875 130.234375 C 125.074219 130.234375 127.960938 127.347656 127.960938 123.742188 C 127.960938 115.722656 116.191406 115.003906 115.066406 122.777344 Z M 78.050781 113.566406 C 72.996094 113.566406 72.996094 121.261719 78.050781 121.261719 C 83.171875 121.261719 83.09375 113.566406 78.050781 113.566406 Z M 37.429688 41.6875 C 32.136719 41.6875 27.738281 46.023438 27.738281 51.394531 C 27.738281 56.761719 32.136719 61.085938 37.429688 61.085938 C 42.796875 61.085938 47.199219 56.761719 47.199219 51.394531 C 47.199219 46.023438 42.796875 41.6875 37.429688 41.6875 Z M 22.121094 121.496094 C 18.515625 121.496094 15.550781 124.382812 15.550781 127.988281 C 15.550781 131.59375 18.515625 134.480469 22.121094 134.480469 C 25.648438 134.480469 28.613281 131.59375 28.613281 127.988281 C 28.613281 124.382812 25.648438 121.496094 22.121094 121.496094 Z M 126.445312 19.980469 C 121.078125 19.980469 116.753906 24.304688 116.753906 29.671875 C 116.753906 35.039062 121.078125 39.375 126.445312 39.375 C 131.8125 39.375 136.136719 35.039062 136.136719 29.671875 C 136.136719 24.304688 131.8125 19.980469 126.445312 19.980469 Z M 126.445312 19.980469 "/></g><g clip-rule="nonzero" clip-path="url(#9f7b11e8ad)"><path style=" stroke:none;fill-rule:nonzero;fill:#061827;fill-opacity:1;" d="M 75.292969 69.066406 C 75.429688 72.042969 77.953125 74.566406 80.929688 74.703125 L 87.320312 75 L 80.929688 75.292969 C 77.953125 75.429688 75.429688 77.953125 75.292969 80.929688 L 75 87.320312 L 74.703125 80.929688 C 74.566406 77.953125 72.042969 75.429688 69.066406 75.292969 L 62.675781 75 L 69.066406 74.703125 C 72.042969 74.566406 74.566406 72.042969 74.703125 69.066406 L 75 62.675781 L 75.292969 69.066406 "/></g></g></svg>