<svg xmlns="http://www.w3.org/2000/svg" xmlns:xlink="http://www.w3.org/1999/xlink" width="500" zoomAndPan="magnify" viewBox="0 0 375 44.999999" height="60" preserveAspectRatio="xMidYMid meet" version="1.2"><defs/><g id="9ea49879d0"><rect x="0" width="375" y="0" height="44.999999" style="fill:#ffffff;fill-opacity:1;stroke:none;"/><rect x="0" width="375" y="0" height="44.999999" style="fill:#061827;fill-opacity:1;stroke:none;"/><g style="fill:#00c5d1;fill-opacity:1;"><g transform="translate(14.056714, 40.874997)"><path style="stroke:none" d="M 36.15625 0 L 20.765625 0 L 20.765625 -6.203125 L 24.03125 -6.203125 L 17.5625 -14.90625 L 13.21875 -14.90625 L 13.21875 -6.203125 L 16.203125 -6.203125 L 16.203125 0 L 2.125 0 L 2.125 -6.203125 L 5.921875 -6.203125 L 5.921875 -29.140625 L 2.125 -29.140625 L 2.125 -35.34375 L 16.359375 -35.34375 L 16.359375 -29.140625 L 13.21875 -29.140625 L 13.21875 -20.828125 L 17.671875 -20.828125 L 23.921875 -29.140625 L 20.875 -29.140625 L 20.875 -35.34375 L 35.5625 -35.34375 L 35.5625 -29.140625 L 31.59375 -29.140625 L 23.15625 -18.546875 L 32.515625 -6.203125 L 36.15625 -6.203125 Z M 36.15625 0 "/></g></g><g style="fill:#00c5d1;fill-opacity:1;"><g transform="translate(50.705455, 40.874997)"><path style="stroke:none" d="M 34.03125 0 L 25.015625 0 L 18 -13.484375 L 13.21875 -13.484375 L 13.21875 -6.203125 L 17.015625 -6.203125 L 17.015625 0 L 2.125 0 L 2.125 -6.203125 L 5.921875 -6.203125 L 5.921875 -29.140625 L 2.125 -29.140625 L 2.125 -35.34375 L 18.109375 -35.34375 C 22.492188 -35.34375 25.863281 -34.441406 28.21875 -32.640625 C 30.570312 -30.847656 31.75 -28.175781 31.75 -24.625 C 31.75 -22.238281 31.132812 -20.238281 29.90625 -18.625 C 28.675781 -17.007812 27.046875 -15.800781 25.015625 -15 L 29.796875 -6.203125 L 34.03125 -6.203125 Z M 23.921875 -24.46875 C 23.921875 -26.25 23.394531 -27.472656 22.34375 -28.140625 C 21.289062 -28.804688 19.441406 -29.140625 16.796875 -29.140625 L 13.21875 -29.140625 L 13.21875 -19.25 L 16.6875 -19.25 C 19.476562 -19.25 21.378906 -19.703125 22.390625 -20.609375 C 23.410156 -21.515625 23.921875 -22.800781 23.921875 -24.46875 Z M 23.921875 -24.46875 "/></g></g><g style="fill:#00c5d1;fill-opacity:1;"><g transform="translate(85.070401, 40.874997)"><path style="stroke:none" d="M 37.40625 -17.71875 C 37.40625 -12.71875 35.800781 -8.421875 32.59375 -4.828125 C 29.382812 -1.242188 24.914062 0.546875 19.1875 0.546875 C 13.425781 0.546875 9.003906 -1.242188 5.921875 -4.828125 C 2.847656 -8.421875 1.3125 -12.6875 1.3125 -17.625 C 1.3125 -22.769531 2.941406 -27.097656 6.203125 -30.609375 C 9.460938 -34.128906 13.863281 -35.890625 19.40625 -35.890625 C 25.0625 -35.890625 29.472656 -34.101562 32.640625 -30.53125 C 35.816406 -26.957031 37.40625 -22.6875 37.40625 -17.71875 Z M 29.53125 -17.515625 C 29.53125 -21.273438 28.660156 -24.207031 26.921875 -26.3125 C 25.179688 -28.414062 22.660156 -29.46875 19.359375 -29.46875 C 15.835938 -29.46875 13.257812 -28.351562 11.625 -26.125 C 10 -23.894531 9.1875 -21.113281 9.1875 -17.78125 C 9.1875 -14.550781 9.984375 -11.757812 11.578125 -9.40625 C 13.171875 -7.050781 15.835938 -5.875 19.578125 -5.875 C 23.015625 -5.875 25.53125 -6.953125 27.125 -9.109375 C 28.726562 -11.265625 29.53125 -14.066406 29.53125 -17.515625 Z M 29.53125 -17.515625 "/></g></g><g style="fill:#00c5d1;fill-opacity:1;"><g transform="translate(123.187189, 40.874997)"><path style="stroke:none" d="M 39.859375 -29.140625 L 36.046875 -29.140625 L 36.046875 0 L 31.96875 0.046875 L 13 -22.40625 L 12.78125 -22.40625 L 12.78125 -6.203125 L 17.671875 -6.203125 L 17.671875 0 L 2.171875 0 L 2.171875 -6.203125 L 5.984375 -6.203125 L 5.984375 -29.140625 L 1.578125 -29.140625 L 1.578125 -35.34375 L 11.203125 -35.34375 L 29.03125 -14.359375 L 29.25 -14.359375 L 29.25 -29.140625 L 24.140625 -29.140625 L 24.140625 -35.34375 L 39.859375 -35.34375 Z M 39.859375 -29.140625 "/></g></g><g style="fill:#00c5d1;fill-opacity:1;"><g transform="translate(163.913974, 40.874997)"><path style="stroke:none" d="M 37.40625 -17.71875 C 37.40625 -12.71875 35.800781 -8.421875 32.59375 -4.828125 C 29.382812 -1.242188 24.914062 0.546875 19.1875 0.546875 C 13.425781 0.546875 9.003906 -1.242188 5.921875 -4.828125 C 2.847656 -8.421875 1.3125 -12.6875 1.3125 -17.625 C 1.3125 -22.769531 2.941406 -27.097656 6.203125 -30.609375 C 9.460938 -34.128906 13.863281 -35.890625 19.40625 -35.890625 C 25.0625 -35.890625 29.472656 -34.101562 32.640625 -30.53125 C 35.816406 -26.957031 37.40625 -22.6875 37.40625 -17.71875 Z M 29.53125 -17.515625 C 29.53125 -21.273438 28.660156 -24.207031 26.921875 -26.3125 C 25.179688 -28.414062 22.660156 -29.46875 19.359375 -29.46875 C 15.835938 -29.46875 13.257812 -28.351562 11.625 -26.125 C 10 -23.894531 9.1875 -21.113281 9.1875 -17.78125 C 9.1875 -14.550781 9.984375 -11.757812 11.578125 -9.40625 C 13.171875 -7.050781 15.835938 -5.875 19.578125 -5.875 C 23.015625 -5.875 25.53125 -6.953125 27.125 -9.109375 C 28.726562 -11.265625 29.53125 -14.066406 29.53125 -17.515625 Z M 29.53125 -17.515625 "/></g></g><g style="fill:#00c5d1;fill-opacity:1;"><g transform="translate(202.628968, 40.874997)"><path style="stroke:none" d="M 34.203125 -23.375 L 28 -22.84375 L 26.921875 -29.140625 L 21.3125 -29.140625 L 21.3125 -6.203125 L 27.078125 -6.203125 L 27.078125 0 L 8.59375 0 L 8.59375 -6.203125 L 14.03125 -6.203125 L 14.03125 -29.140625 L 8.421875 -29.140625 L 7.34375 -22.84375 L 1.140625 -23.375 L 2.234375 -35.34375 L 33.109375 -35.34375 Z M 34.203125 -23.375 "/></g></g><g style="fill:#00c5d1;fill-opacity:1;"><g transform="translate(238.027098, 40.874997)"><path style="stroke:none" d="M 37.40625 -17.71875 C 37.40625 -12.71875 35.800781 -8.421875 32.59375 -4.828125 C 29.382812 -1.242188 24.914062 0.546875 19.1875 0.546875 C 13.425781 0.546875 9.003906 -1.242188 5.921875 -4.828125 C 2.847656 -8.421875 1.3125 -12.6875 1.3125 -17.625 C 1.3125 -22.769531 2.941406 -27.097656 6.203125 -30.609375 C 9.460938 -34.128906 13.863281 -35.890625 19.40625 -35.890625 C 25.0625 -35.890625 29.472656 -34.101562 32.640625 -30.53125 C 35.816406 -26.957031 37.40625 -22.6875 37.40625 -17.71875 Z M 29.53125 -17.515625 C 29.53125 -21.273438 28.660156 -24.207031 26.921875 -26.3125 C 25.179688 -28.414062 22.660156 -29.46875 19.359375 -29.46875 C 15.835938 -29.46875 13.257812 -28.351562 11.625 -26.125 C 10 -23.894531 9.1875 -21.113281 9.1875 -17.78125 C 9.1875 -14.550781 9.984375 -11.757812 11.578125 -9.40625 C 13.171875 -7.050781 15.835938 -5.875 19.578125 -5.875 C 23.015625 -5.875 25.53125 -6.953125 27.125 -9.109375 C 28.726562 -11.265625 29.53125 -14.066406 29.53125 -17.515625 Z M 29.53125 -17.515625 "/></g></g><g style="fill:#00c5d1;fill-opacity:1;"><g transform="translate(276.143886, 40.874997)"><path style="stroke:none" d="M 31.75 -23.8125 C 31.75 -19.789062 30.4375 -16.789062 27.8125 -14.8125 C 25.1875 -12.84375 22.132812 -11.859375 18.65625 -11.859375 L 13.21875 -11.859375 L 13.21875 -6.203125 L 18.65625 -6.203125 L 18.65625 0 L 2.125 0 L 2.125 -6.203125 L 5.921875 -6.203125 L 5.921875 -29.140625 L 2.125 -29.140625 L 2.125 -35.34375 L 18.328125 -35.34375 C 22.710938 -35.34375 26.046875 -34.304688 28.328125 -32.234375 C 30.609375 -30.171875 31.75 -27.363281 31.75 -23.8125 Z M 23.921875 -23.703125 C 23.921875 -25.441406 23.441406 -26.78125 22.484375 -27.71875 C 21.523438 -28.664062 19.832031 -29.140625 17.40625 -29.140625 L 13.21875 -29.140625 L 13.21875 -18 L 17.296875 -18 C 19.796875 -18 21.523438 -18.523438 22.484375 -19.578125 C 23.441406 -20.628906 23.921875 -22.003906 23.921875 -23.703125 Z M 23.921875 -23.703125 "/></g></g><g style="fill:#c6ff3a;fill-opacity:1;"><g transform="translate(308.666071, 40.874997)"><path style="stroke:none" d="M 20.984375 -28.921875 L 15.21875 -26.046875 L 20.984375 -23.15625 L 18.375 -19.078125 L 13.328125 -22.515625 L 13.703125 -16.796875 L 8.859375 -16.796875 L 9.25 -22.453125 L 4.234375 -19.078125 L 1.625 -23.15625 L 7.34375 -26.046875 L 1.625 -28.921875 L 4.1875 -33 L 9.296875 -29.53125 L 8.859375 -35.34375 L 13.703125 -35.34375 L 13.265625 -29.46875 L 18.4375 -33 Z M 20.984375 -28.921875 "/></g></g></g></svg>